<?xml version="1.0" standalone="no"?>
<!DOCTYPE svg PUBLIC "-//W3C//DTD SVG 20010904//EN"
 "http://www.w3.org/TR/2001/REC-SVG-20010904/DTD/svg10.dtd">
<svg version="1.0" xmlns="http://www.w3.org/2000/svg"
 width="260.000000pt" height="260.000000pt" viewBox="0 0 260.000000 260.000000"
 preserveAspectRatio="xMidYMid meet">
<metadata>
Created by potrace 1.11, written by Peter Selinger 2001-2013
</metadata>
<g transform="translate(0.000000,260.000000) scale(0.100000,-0.100000)"
fill="#000000" stroke="none">
<path d="M1185 2429 c-539 -57 -962 -481 -1016 -1020 -28 -286 50 -557 230
-797 214 -283 539 -442 903 -442 307 0 590 120 803 342 218 225 325 485 325
788 0 302 -113 577 -326 795 -193 198 -415 303 -709 335 -99 11 -96 11 -210
-1z m360 -137 c177 -50 301 -116 432 -232 264 -233 392 -604 323 -938 -49
-240 -133 -396 -304 -560 -360 -345 -908 -375 -1318 -72 -159 117 -308 339
-364 541 -32 116 -43 309 -24 427 69 434 405 774 840 851 89 16 333 6 415 -17z"/>
<path d="M1207 1590 c-341 -121 -625 -224 -632 -230 -24 -20 -24 -50 -2 -74
19 -20 65 -33 316 -85 162 -34 297 -63 299 -66 3 -3 22 -134 43 -292 22 -159
41 -298 44 -311 7 -30 48 -49 78 -35 17 8 79 143 290 630 147 341 267 627 267
636 0 24 -29 47 -58 46 -15 0 -305 -99 -645 -219z m520 18 c-13 -29 -99 -229
-192 -445 -94 -215 -173 -388 -176 -385 -3 4 -18 101 -33 216 -16 115 -30 215
-33 222 -6 17 -1 16 -247 69 -115 24 -210 46 -212 47 -2 2 889 321 913 327 2
1 -8 -23 -20 -51z"/>
</g>
</svg>
