<svg xmlns="http://www.w3.org/2000/svg" viewBox="155 98.7 400 142.3">
    <path opacity=".13" fill="#010202" d="M273.5 157.3h-3v-39.5l-12.1-10.2-1.5 39.2-3.7.5H155l6.9 10h111.3l.3.1z"/>
    <path fill="#CEC6B8" d="M162.2 98.7h105v38.6h-105z"/>
    <path fill="#B8B09C" d="M155.4 147.6h104.9l6.9-10.3h-105z"/>
    <path fill="#D3CCBD" d="M155.4 147.6l6.8-10.3V98.7l-6.8 10.3z"/>
    <g>
        <path opacity=".13" fill="#010202" d="M467.2 150.3h-1v-32.5l-5.1-10.2-1.5 39.2.3.5H355l6.9 3h105l.3.1z"/>
        <path fill="#CEC6B8" d="M357.2 106.7h105.1v38.6H357.2z"/>
        <path fill="#B8B09C" d="M355.4 147.6h105.1l1.9-2.3H357.2z"/>
        <path fill="#D3CCBD" d="M355.4 147.6l1.8-2.3v-38.6l-1.8 2.3z"/>
    </g>
</svg>
