<svg xmlns="http://www.w3.org/2000/svg" viewBox="2 0 93 338">
    <path opacity=".13" d="M92.5 13.2l-2.3 27.1H54.4l2 3h38V19.7l-1.9-6.5zM37.6 54.3v40h-36l3.8 7h43.2v-32l-11-15zM37.6 0v40h-36l3.8 7h43.2V15.1L37.6 0z"/>
    <path fill="#EE7AAA" d="M8.6 0h36v30h-36V0z"/>
    <path fill="#F3A0C5" d="M8.6 30l-7 10V10l7-10v30z"/>
    <path fill="#DB5B90" d="M44.6 30h-36l-7 10h36l7-10z"/>
    <path fill="#D3CCBD" d="M8.6 54.3h36v30h-36v-30z"/>
    <path fill="#E0DBCF" d="M8.6 84.3l-7 10v-30l7-10v30z"/>
    <path fill="#B8B09C" d="M44.6 84.3h-36l-7 10h36l7-10z"/>
    <g fill="none" stroke="#FFF" stroke-width="2" stroke-linecap="round" stroke-miterlimit="10">
        <path d="M19.6 62.3l14 14M33.6 62.3l-14 14"/>
    </g>
    <path opacity=".13" d="M37.6 111.6v40h-36l3.8 7h43.2v-31.9l-11-15.1z"/>
    <path fill="#5CA8DD" d="M8.6 111.6h36v30h-36v-30z"/>
    <path fill="#A6D7F5" d="M8.6 141.6l-7 10v-30l7-10v30z"/>
    <path fill="#397EA9" d="M44.6 141.6h-36l-7 10h36l7-10z"/>
    <path fill="#FFF" d="M30.3 118.5h1c.2 0 .5.1.7.2.4.2.8.4 1.2.7l.3.3c0 .1.1.1.2 0 .7-.2 1.5-.4 2.1-.8.1 0 .2-.1.2-.1h.1v.1c-.1.3-.2.6-.4.8-.2.3-.4.6-.7.8-.1.1-.3.3-.5.4h-.1c.2-.1.3-.1.5-.1.5-.1 1.1-.3 1.6-.5h.1s.1 0 .1.1-.1.2-.2.3c-.3.5-.7.9-1.1 1.2-.2.2-.4.4-.6.5-.1 0-.1.1-.1.2v.5c0 .6-.1 1.2-.2 1.8-.1.6-.3 1.2-.5 1.8-.2.4-.3.9-.5 1.3-.3.6-.6 1.2-1 1.8-.3.4-.6.8-.9 1.1l-.5.5c-.7.7-1.5 1.3-2.3 1.8-.7.4-1.4.7-2.1.9s-1.4.4-2.1.5c-.4 0-.7.1-1.1.1h-.9c-.8 0-1.6-.1-2.4-.3-.7-.2-1.4-.4-2.1-.7-.5-.2-.9-.5-1.4-.7 0 0-.1 0-.1-.1s.1-.1.1-.1h1.6c.5 0 1-.1 1.6-.3.5-.1 1-.3 1.5-.6.4-.2.8-.5 1.2-.7h.1c-.2 0-.3 0-.4-.1-.7-.1-1.3-.4-1.9-.8-.5-.4-.9-.9-1.2-1.5-.1-.1-.1-.3-.2-.4 0-.1 0-.2.1-.1.2 0 .4.1.6.1.3 0 .5 0 .8-.1h.2-.2c-.6-.2-1.1-.4-1.5-.8s-.8-.8-1.1-1.3c-.2-.4-.3-.9-.4-1.4v-.4c0-.1.1-.1.1-.1.2.1.4.2.5.2.3.1.6.2.9.2h.2c-.1-.1-.2-.1-.2-.2-.4-.3-.7-.7-.9-1.1-.3-.5-.5-1.1-.6-1.7-.1-.7 0-1.3.3-2 .1-.1.1-.3.2-.4s.1-.1.2 0l.6.6c.6.6 1.3 1.2 2 1.7.3.2.6.4 1 .6.6.3 1.2.6 1.8.8.7.2 1.4.4 2.1.5.2 0 .5.1.7.1.1 0 .1 0 .1-.1-.1-.7-.1-1.3.1-2 .2-.6.5-1.1.8-1.5.6-.7 1.3-1.1 2.2-1.3h.6c-.1-.2-.1-.2.1-.2-.1 0-.1 0 0 0z"/>
    <path opacity=".13" d="M37.6 167.5v40h-36l3.8 7h43.2v-31.9l-11-15.1z"/>
    <path fill="#3665A6" d="M8.6 167.5h36v30h-36v-30z"/>
    <path fill="#397EC1" d="M8.6 197.5l-7 10v-30l7-10v30z"/>
    <path fill="#264973" d="M44.6 197.5h-36l-7 10h36l7-10z"/>
    <path fill="#FFF" d="M23.7 197.5v-11.3h-3v-4.1h3v-3.5c0-2.7 1.8-5.2 5.8-5.2 1.6 0 2.9.2 2.9.2l-.1 3.8h-2.6c-1.5 0-1.7.7-1.7 1.8v3h4.4l-.2 4.1H28v11.3l-4.3-.1z"/>
    <path opacity=".13" d="M37.6 223.5v40h-36l3.8 7h43.2v-31.9l-11-15.1z"/>
    <path fill="#DE4937" d="M8.6 223.5h36v30h-36v-30z"/>
    <path fill="#E26359" d="M8.6 253.5l-7 10v-30l7-10v30z"/>
    <path fill="#C84433" d="M44.6 253.5h-36l-7 10h36l7-10z"/>
    <path fill="#FFF" d="M22.2 237v3h4.1c-.3 1.8-1.8 3-4.1 3-2.5 0-4.5-2.1-4.5-4.6s2-4.6 4.5-4.6c1.1 0 2.1.4 2.9 1.1l2.2-2.2c-1.3-1.2-3-2-5.1-2-4.2 0-7.6 3.4-7.6 7.6s3.4 7.6 7.6 7.6c4.4 0 7.3-3.1 7.3-7.4 0-.6-.1-1.2-.2-1.7h-7.1v.2zM35.9 237.2v-2.7H34v2.7h-2.7v1.9H34v2.7h1.9v-2.7h2.7v-1.9h-2.7z"/>
    <path opacity=".13" d="M37.6 278.7v39.9h-36l3.8 7h43.2v-31.8l-11-15.1z"/>
    <path fill="#D3CCBD" d="M8.6 278.7h36v30h-36v-30z"/>
    <path fill="#E0DBCF" d="M8.6 308.6l-7 10v-30l7-9.9v29.9z"/>
    <path fill="#B8B09C" d="M44.6 308.6h-36l-7 10h36l7-10z"/>
    <path fill="#F3A0C5" d="M54.4 40.3l2-2v-30l-2 2.1v29.9z"/>
    <path fill="#DB5B90" d="M90.4 40.3h-36l2-2h36l-2 2z"/>
    <path fill="#EE7AAA" d="M56.4 8.3h36v30h-36v-30z"/>
    <path opacity=".13" d="M92.2 67.3l-2.3 27H54.1l2 3h38V73.8l-1.9-6.5z"/>
    <path fill="#E0DBCF" d="M54.1 94.3l2-2v-30l-2 2v30z"/>
    <path fill="#B8B09C" d="M90.1 94.3h-36l2-2h36l-2 2z"/>
    <path fill="#D3CCBD" d="M56.1 62.3h36v30h-36v-30z"/>
    <path opacity=".13" d="M92.2 291.9L89.9 319H54.1l2 2.9h38v-23.5l-1.9-6.5z"/>
    <path fill="#E0DBCF" d="M54.1 318.9l2-2v-30l-2 2.2v29.8z"/>
    <path fill="#B8B09C" d="M90.1 318.9h-36l2-2h36l-2 2z"/>
    <path fill="#D3CCBD" d="M56.1 286.9h36v30h-36v-30z"/>
    <g fill="none" stroke="#FFF" stroke-width="2" stroke-linecap="round" stroke-miterlimit="10">
        <path d="M67.1 70.3l14 14M81.1 70.3l-14 14"/>
    </g>
    <path opacity=".13" d="M92.2 124.6l-2.3 27.1H54.1l2 2.9h38v-23.5l-1.9-6.5z"/>
    <path fill="#A6D7F5" d="M54.1 151.6l2-2v-30l-2 2.2v29.8z"/>
    <path fill="#397EA9" d="M90.1 151.6h-36l2-2h36l-2 2z"/>
    <path fill="#5CA8DD" d="M56.1 119.6h36v30h-36v-30z"/>
    <path fill="#FFF" d="M77.8 126.5h1c.2 0 .5.1.7.2.4.2.8.4 1.2.7l.3.3s.1.1.2 0c.7-.2 1.5-.4 2.1-.8.1 0 .2-.1.2-.1h.1v.1c-.1.3-.2.6-.4.8-.2.3-.4.6-.7.8-.1.1-.3.3-.5.4h-.1c.2-.1.3-.1.5-.1.5-.1 1.1-.3 1.6-.5h.1s.1 0 .1.1-.1.2-.2.3c-.3.5-.7.9-1.1 1.2-.2.2-.4.4-.6.5-.1 0-.1.1-.1.2v.5c0 .6-.1 1.2-.2 1.8s-.3 1.2-.5 1.8c-.2.4-.3.9-.5 1.3-.3.6-.6 1.2-1 1.8-.3.4-.6.8-.9 1.1l-.5.5c-.7.7-1.5 1.3-2.3 1.8-.7.4-1.4.7-2.1.9s-1.4.4-2.1.5c-.4 0-.7.1-1.1.1h-.9c-.8 0-1.6-.1-2.4-.3-.7-.2-1.4-.4-2.1-.7-.5-.2-.9-.5-1.4-.7 0 0-.1 0-.1-.1s.1-.1.1-.1h1.6c.5 0 1-.1 1.6-.3.5-.1 1-.3 1.5-.6.4-.2.8-.5 1.2-.7h.1c-.2 0-.3 0-.4-.1-.7-.1-1.3-.4-1.9-.8-.5-.4-.9-.9-1.2-1.5-.1-.1-.1-.3-.2-.4 0-.1 0-.2.1-.1.2 0 .4.1.6.1.3 0 .5 0 .8-.1h.2-.2c-.6-.2-1.1-.4-1.5-.8s-.8-.8-1.1-1.3c-.2-.4-.3-.9-.4-1.4v-.4c0-.1.1-.1.1-.1.2.1.4.2.5.2.3.1.6.2.9.2h.2c-.1-.1-.2-.1-.2-.2-.4-.3-.7-.7-.9-1.1-.3-.5-.5-1.1-.6-1.7-.1-.7 0-1.3.3-2 .1-.1.1-.3.2-.4s.1-.1.2 0l.6.6c.6.6 1.3 1.2 2 1.7.3.2.6.4 1 .6.6.3 1.2.6 1.8.8.7.2 1.4.4 2.1.5.2 0 .5.1.7.1.1 0 .1 0 .1-.1-.1-.7-.1-1.3.1-2 .2-.6.5-1.1.8-1.5.6-.7 1.3-1.1 2.2-1.3h.6c-.1-.2 0-.2.1-.2-.1 0 0 0 0 0z"/>
    <path opacity=".13" d="M92.2 180.7l-2.3 27H54.1l2 3h38v-23.5l-1.9-6.5z"/>
    <path fill="#397EC1" d="M54.1 207.7l2-2v-30l-2 2.1v29.9z"/>
    <path fill="#264973" d="M90.1 207.7h-36l2-2h36l-2 2z"/>
    <path fill="#3665A6" d="M56.1 175.7h36v30h-36v-30z"/>
    <path fill="#FFF" d="M71.3 205.7v-11.3h-3v-4.1h3v-3.5c0-2.7 1.8-5.2 5.8-5.2 1.6 0 2.9.2 2.9.2l-.1 3.8h-2.6c-1.5 0-1.7.7-1.7 1.8v3H80l-.2 4.1h-4.2v11.3l-4.3-.1z"/>
    <path opacity=".13" d="M92.2 236.5l-2.3 27H54.1l2 3h38V243l-1.9-6.5z"/>
    <path fill="#E26359" d="M54.1 263.5l2-2v-30l-2 2.1v29.9z"/>
    <path fill="#C84433" d="M90.1 263.5h-36l2-2h36l-2 2z"/>
    <path fill="#DE4937" d="M56.1 231.5h36v30h-36v-30z"/>
    <g>
        <path fill="#FFF" d="M69.7 245v3h4.1c-.3 1.8-1.8 3-4.1 3-2.5 0-4.5-2.1-4.5-4.6s2-4.6 4.5-4.6c1.1 0 2.1.4 2.9 1.1l2.2-2.2c-1.3-1.2-3-2-5.1-2-4.2 0-7.6 3.4-7.6 7.6s3.4 7.6 7.6 7.6c4.4 0 7.3-3.1 7.3-7.4 0-.6-.1-1.2-.2-1.7h-7.1v.2zM83.5 245.2v-2.7h-1.9v2.7h-2.7v1.9h2.7v2.7h1.9v-2.7h2.7v-1.9h-2.7z"/>
    </g>
</svg>
